Coordinates
version=1
nRows=22
nColumns=33
inDegrees=yes

Units are S.I. units (second, meters, Newtons, ...)
Angles are in degrees.

endheader
time	ground_thorax_rot_x	ground_thorax_rot_y	ground_thorax_rot_z	ground_thorax_tx	ground_thorax_ty	ground_thorax_tz	clav_prot_r	clav_elev_r	scapula_abduction_r	scapula_elevation_r	scapula_upward_rot_r	scapula_winging_r	shoulder_elv_r	plane_of_elev_r	axial_rot_r	elbow_flexion_r	pro_sup_r	wrist_flex_r	wrist_dev_r	clav_prot_l	clav_elev_l	scapula_abduction_l	scapula_elevation_l	scapula_upward_rot_l	scapula_winging_l	shoulder_elv_l	plane_of_elev_l	axial_rot_l	elbow_flexion_l	pro_sup_l	wrist_flex_l	wrist_dev_l	
4.3500	31.223925	28.128377	34.338106	-40.868754	790.682660	-48.243891	12.161979	34.406494	23.205627	45.000000	-45.000000	-3322.102113	-3166.618656	22.598122	180.000000	1805.456214	-170.961455	12.979289	13.636939	-10.715427	-45.000000	-36.507432	45.000000	-45.000000	-2417.832063	-90.713138	135.840057	-133.489852	350.045021	47.055418	11.958465	-16.851476	
4.3600	31.565602	27.923637	34.191605	-43.491777	790.982748	-46.314386	12.172610	34.519945	23.420500	45.000000	-45.000000	-3322.555068	-3166.518895	22.728044	180.000000	1805.687196	-171.322276	13.128459	13.716449	-10.734747	-45.000000	-36.574067	45.000000	-45.000000	-2417.720022	-90.619829	135.859590	-133.451515	350.001796	46.778222	12.035403	-16.901073	
4.3700	31.776584	27.701911	34.043719	-46.110724	791.878176	-45.115241	12.165883	34.579019	23.552626	45.000000	-45.000000	-3322.902813	-3166.452189	22.819750	180.000000	1805.824282	-171.834249	13.210387	13.833117	-10.693574	-45.000000	-36.658674	45.000000	-45.000000	-2417.588944	-90.515061	135.851702	-133.384051	349.966327	46.518303	12.102026	-16.960684	
4.3800	31.879692	27.470710	33.895217	-48.713242	793.273193	-44.545986	12.158629	34.586443	23.608644	45.000000	-45.000000	-3323.157243	-3166.408911	22.879670	180.000000	1805.877137	-172.448213	13.235271	13.970245	-10.594689	-45.000000	-36.757114	45.000000	-45.000000	-2417.449644	-90.408247	135.831371	-133.330862	349.945025	46.279243	12.164577	-17.035622	
4.3900	31.895096	27.233101	33.744239	-51.290266	795.087819	-44.516015	12.143477	34.555030	23.603697	45.000000	-45.000000	-3323.335308	-3166.388876	22.913245	180.000000	1805.859149	-173.112043	13.216476	14.116354	-10.452910	-45.000000	-36.867429	45.000000	-45.000000	-2417.298808	-90.300799	135.796848	-133.273157	349.936334	46.061981	12.222370	-17.125660	
4.4000	31.907632	27.004444	33.597090	-53.812186	796.935975	-44.521053	12.140358	34.514645	23.588176	45.000000	-45.000000	-3323.504435	-3166.366488	22.946852	180.000000	1805.831369	-173.740690	13.200990	14.241313	-10.303907	-45.000000	-36.979189	45.000000	-45.000000	-2417.157684	-90.199693	135.771215	-133.240840	349.934943	45.852142	12.281879	-17.224321	
4.4100	31.919594	26.777422	33.453382	-56.280373	798.815153	-44.550303	12.132025	34.478546	23.578064	45.000000	-45.000000	-3323.672315	-3166.349690	22.982090	180.000000	1805.801767	-174.324396	13.193966	14.349356	-10.159587	-45.000000	-37.091635	45.000000	-45.000000	-2417.013231	-90.098582	135.743285	-133.186128	349.934149	45.644786	12.340304	-17.328172	
4.4200	31.929005	26.553696	33.312190	-58.694350	800.722747	-44.595880	12.127028	34.438639	23.566915	45.000000	-45.000000	-3323.834627	-3166.333086	23.018251	180.000000	1805.767818	-174.874241	13.196126	14.443678	-10.010382	-45.000000	-37.207642	45.000000	-45.000000	-2416.871070	-89.996057	135.715930	-133.121731	349.930689	45.436386	12.399050	-17.433266	
4.4300	31.938213	26.332714	33.174343	-61.052680	802.656667	-44.653033	12.119738	34.403826	23.564607	45.000000	-45.000000	-3323.999721	-3166.320730	23.055907	180.000000	1805.732365	-175.402682	13.207073	14.528784	-9.864681	-45.000000	-37.321569	45.000000	-45.000000	-2416.725345	-89.894183	135.685663	-133.044043	349.929326	45.223828	12.458112	-17.542756	
4.4400	31.944802	26.120020	33.038687	-63.353772	804.615426	-44.718113	12.116510	34.364655	23.560280	45.000000	-45.000000	-3324.161942	-3166.306840	23.092100	180.000000	1805.691877	-175.926549	13.224166	14.605200	-9.716178	-45.000000	-37.436355	45.000000	-45.000000	-2416.585069	-89.790314	135.655734	-132.960640	349.926128	45.004952	12.515330	-17.650218	
4.4500	31.950976	25.913904	32.908090	-65.595573	806.598003	-44.788400	12.114446	34.328478	23.562936	45.000000	-45.000000	-3324.328267	-3166.294005	23.127601	180.000000	1805.648344	-176.459063	13.245384	14.675813	-9.572863	-45.000000	-37.547206	45.000000	-45.000000	-2416.447341	-89.685314	135.624939	-132.870227	349.924961	44.777492	12.570360	-17.758092	
4.4600	31.954285	25.717724	32.782032	-67.775803	808.604029	-44.861506	12.116032	34.289002	23.565623	45.000000	-45.000000	-3324.493055	-3166.278819	23.161876	180.000000	1805.601896	-177.013069	13.267427	14.742513	-9.426012	-45.000000	-37.660916	45.000000	-45.000000	-2416.313485	-89.578350	135.594812	-132.777543	349.921548	44.540476	12.622708	-17.862625	
4.4700	31.959126	25.526942	32.659426	-69.891044	810.633446	-44.936510	12.119950	34.251633	23.576980	45.000000	-45.000000	-3324.661248	-3166.265176	23.198147	180.000000	1805.551967	-177.595397	13.289239	14.807843	-9.284692	-45.000000	-37.770406	45.000000	-45.000000	-2416.181680	-89.470297	135.564492	-132.681484	349.918104	44.292577	12.673676	-17.966935	
4.4800	31.962493	25.347619	32.540946	-71.937143	812.686563	-45.013528	12.129311	34.210309	23.587896	45.000000	-45.000000	-3324.827287	-3166.250565	23.232938	180.000000	1805.495001	-178.211226	13.308983	14.871126	-9.142761	-45.000000	-37.881292	45.000000	-45.000000	-2416.056808	-89.360114	135.537225	-132.584983	349.910668	44.032917	12.722478	-18.065853	
4.4900	31.968641	25.173808	32.425752	-73.909224	814.763589	-45.093354	12.141604	34.172849	23.610432	45.000000	-45.000000	-3324.995810	-3166.239999	23.269190	180.000000	1805.434503	-178.858139	13.326502	14.933838	-9.009860	-45.000000	-37.988234	45.000000	-45.000000	-2415.935627	-89.249282	135.511120	-132.485723	349.901726	43.760894	12.772141	-18.164219	
4.5000	31.974831	25.012491	32.314464	-75.802607	816.864597	-45.176842	12.157680	34.133114	23.635573	45.000000	-45.000000	-3325.163248	-3166.229860	23.303595	180.000000	1805.363687	-179.532726	13.343123	14.995050	-8.876832	-45.000000	-38.097424	45.000000	-45.000000	-2415.818435	-89.138985	135.486385	-132.383097	349.891987	43.476678	12.822625	-18.259457	
4.5100	31.985215	24.858980	32.204314	-77.612956	818.988788	-45.264389	12.177182	34.095567	23.670815	45.000000	-45.000000	-3325.332177	-3166.221376	23.339402	180.000000	1805.283730	-180.228200	13.360296	15.054267	-8.752346	-45.000000	-38.202665	45.000000	-45.000000	-2415.705968	-89.029597	135.462514	-132.275796	349.884286	43.181535	12.875788	-18.355010	
4.5200	31.995568	24.723339	32.098145	-79.337154	821.134501	-45.355713	12.201901	34.052948	23.701678	45.000000	-45.000000	-3325.499200	-3166.209890	23.371573	180.000000	1805.187196	-180.941002	13.379679	15.108436	-8.627146	-45.000000	-38.310391	45.000000	-45.000000	-2415.603094	-88.920619	135.440954	-132.165710	349.878675	42.878044	12.929648	-18.446109	
4.5300	32.009895	24.595864	31.994113	-80.973249	823.298583	-45.449868	12.227623	34.013841	23.740840	45.000000	-45.000000	-3325.666759	-3166.199787	23.405981	180.000000	1805.084112	-181.663573	13.401222	15.159336	-8.507041	-45.000000	-38.417676	45.000000	-45.000000	-2415.503120	-88.814241	135.418639	-132.051498	349.876128	42.571585	12.987534	-18.539562	
4.5400	32.025057	24.481935	31.892168	-82.520983	825.476571	-45.545496	12.253519	33.970993	23.776964	45.000000	-45.000000	-3325.829896	-3166.187753	23.439977	180.000000	1804.970764	-182.391784	13.425384	15.206647	-8.379646	-45.000000	-38.532212	45.000000	-45.000000	-2415.406876	-88.711771	135.393884	-131.931329	349.876355	42.269043	13.047952	-18.633055	
4.5500	32.045187	24.372400	31.789072	-83.981405	827.662311	-45.641163	12.276417	33.931464	23.821611	45.000000	-45.000000	-3325.990982	-3166.177758	23.479020	180.000000	1804.853888	-183.119351	13.452412	15.252537	-8.250901	-45.000000	-38.648979	45.000000	-45.000000	-2415.309454	-88.613405	135.364096	-131.804042	349.878540	41.978945	13.113113	-18.732307	
4.5600	32.066441	24.274199	31.688269	-85.357016	829.848342	-45.735688	12.297701	33.890021	23.866098	45.000000	-45.000000	-3326.147660	-3166.168411	23.518027	180.000000	1804.729453	-183.842722	13.482797	15.295229	-8.115871	-45.000000	-38.771046	45.000000	-45.000000	-2415.215635	-88.516681	135.331302	-131.669803	349.880403	41.709417	13.180564	-18.833644	
